<svg width="212" height="135" viewBox="0 0 212 135" fill="none" xmlns="http://www.w3.org/2000/svg">
<g clip-path="url(#clip0_64_52)">
<mask id="mask0_64_52" style="mask-type:luminance" maskUnits="userSpaceOnUse" x="0" y="0" width="212" height="135">
<path d="M211.065 0.0294189H0.0654297V134.029H211.065V0.0294189Z" fill="white"/>
</mask>
<g mask="url(#mask0_64_52)">
<path d="M199.146 27.0669C200.631 34.6037 202.091 42.1305 203.72 50.4313C208.243 47.8694 209.626 43.9391 209.276 40.1906C208.227 29.093 207.033 17.9533 204.757 7.07173C203.46 0.831463 198.127 -0.43057 193.302 3.72495C185.265 10.6568 177.592 17.9811 169.77 25.1587C169.312 25.5702 168.648 26.0497 168.57 26.55C168.319 28.2069 168.311 29.885 168.191 31.5485C169.623 31.6039 171.418 32.2428 172.447 31.6254C175.905 29.5486 179.123 27.0248 182.419 24.6788C184.154 23.4363 185.871 22.2016 189.002 21.7083C187.979 24.761 187.067 27.8713 185.881 30.8463C161.858 91.6493 101.979 128.518 36.2569 122.774C27.852 122.043 19.5443 120.273 11.1919 119.032C8.2743 118.606 5.33991 118.335 2.40998 117.978C2.1148 118.615 1.81179 119.234 1.5166 119.872C2.83808 121.226 3.89794 123.245 5.49557 123.822C11.0503 125.878 16.7046 127.869 22.484 129.128C81.0436 141.805 143.319 116.189 177.643 64.8743C184.19 55.0927 188.927 44.1061 194.426 33.6366C195.569 31.4856 196.38 29.1614 197.333 26.9226C197.968 27.0071 198.56 27.0459 199.146 27.0669Z" fill="#2B39B9"/>
</g>
</g>
<defs>
<clipPath id="clip0_64_52">
<rect width="211" height="134" fill="white" transform="translate(0.0654297 0.0294189)"/>
</clipPath>
</defs>
</svg>
